<?xml version="1.0" encoding="UTF-8" standalone="no"?>
<svg width="200px" height="140px" viewBox="0 0 200 140" version="1.1" xmlns="http://www.w3.org/2000/svg" xmlns:xlink="http://www.w3.org/1999/xlink">
    <title>Salesforce Logo</title>
    <g id="Page-1" stroke="none" stroke-width="1" fill="none" fill-rule="evenodd">
        <g id="salesforce-logo" fill="#00A1E0" fill-rule="nonzero">
            <path d="M24.5,70.9c1.2-1.4,2.9-2.2,4.7-2.2c1.5,0,2.9,0.5,4,1.4c1.1,0.9,1.9,2.1,2.2,3.5c1.8-2.9,5-4.9,8.8-4.9c2.7,0,5.3,1.1,7.2,3c1.9,1.9,3,4.5,3,7.2c0,0.3,0,0.6,0,0.9c1.8-2.2,4.5-3.5,7.4-3.6c2.7,0,5.3,1.1,7.1,3c1.9,1.9,2.9,4.4,2.9,7.1c0,1.4-0.3,2.7-0.8,3.9c1.8-1.3,4-2,6.3-2c3,0,5.8,1.2,7.9,3.3c2.1,2.1,3.3,4.9,3.3,7.9c0,6.2-5,11.2-11.2,11.2l-43.1,0c-2.4,0-4.8-0.8-6.7-2.2c-2-1.4-3.5-3.5-4.3-5.9c-0.4-1.2-0.6-2.4-0.6-3.7c0-3,1.2-5.9,3.3-8c2.1-2.1,5-3.3,8-3.3c0.8,0,1.6,0.1,2.4,0.3c-0.3-0.9-0.4-1.9-0.4-2.9c0-5.4,4.4-9.7,9.7-9.7c1.3,0,2.6,0.2,3.8,0.7c-0.7-1.4-1.1-3-1.1-4.6c0-2.9,1.2-5.6,3.3-7.7c2.1-2.1,4.8-3.2,7.7-3.2c3.3,0,6.4,1.5,8.4,4.1c0.8-1.4,2.4-2.3,4.1-2.3c2.6,0,4.7,2.1,4.7,4.7c0,2.6-2.1,4.7-4.7,4.7c-0.4,0-0.7-0.1-1.1-0.1c0.1,0.6,0.1,1.1,0.1,1.7c0,0.4,0,0.8,0,1.1c0.6-0.6,1.4-0.9,2.3-0.9c1.8,0,3.3,1.5,3.3,3.3c0,1.8-1.5,3.3-3.3,3.3c-0.4,0-0.7-0.1-1.1-0.2c-1.3,2.6-3.9,4.4-6.9,4.6c-0.1,4.1-2.2,7.7-5.4,9.9c0.4,1,0.6,2.1,0.6,3.3c0,4.6-3.7,8.3-8.3,8.3c-2.9,0-5.6-1.5-7.1-4c-1.2,0.7-2.6,1.1-4,1.1c-3.8,0-7-2.7-7.7-6.3c-0.4,0.1-0.9,0.1-1.3,0.1c-3.8,0-6.9-3.1-6.9-6.9c0-1,0.2-2,0.6-2.9c-3.9-0.3-7-3.6-7-7.6c0-3.4,2.3-6.4,5.6-7.3c-0.1-0.4-0.2-0.9-0.2-1.4c0-2.6,2.1-4.7,4.7-4.7c1.5,0,2.9,0.7,3.7,1.9Z" id="Path"></path>
            <path d="M150,65.7c-1.2,0-2.2-1-2.2-2.2c0-1.2,1-2.2,2.2-2.2h19.2c1.2,0,2.2,1,2.2,2.2c0,1.2-1,2.2-2.2,2.2h-19.2z" id="Path"></path>
            <path d="M144,78.7c-1.2,0-2.2-1-2.2-2.2c0-1.2,1-2.2,2.2-2.2h25.2c1.2,0,2.2,1,2.2,2.2c0,1.2-1,2.2-2.2,2.2h-25.2z" id="Path"></path>
            <path d="M122.6,91.8c-1.2,0-2.2-1-2.2-2.2c0-1.2,1-2.2,2.2-2.2h46.6c1.2,0,2.2,1,2.2,2.2c0,1.2-1,2.2-2.2,2.2h-46.6z" id="Path"></path>
        </g>
    </g>
</svg> 