<svg xmlns="http://www.w3.org/2000/svg" viewBox="0 0 132 55">
<path fill-rule="evenodd" clip-rule="evenodd" d="M52.0819 11.2062C51.0293 11.2062 50.0794 10.9815 49.2321 10.5322C48.3978 10.083 47.7367 9.44112 47.2489 8.60674C46.7739 7.77236 46.5364 6.79677 46.5364 5.67999C46.5364 4.57603 46.7803 3.60687 47.2681 2.77249C47.7559 1.92527 48.4234 1.27702 49.2707 0.827733C50.1179 0.37845 51.0678 0.153809 52.1204 0.153809C53.173 0.153809 54.1229 0.37845 54.9701 0.827733C55.8173 1.27702 56.4849 1.92527 56.9726 2.77249C57.4604 3.60687 57.7043 4.57603 57.7043 5.67999C57.7043 6.78394 57.454 7.75952 56.9534 8.60674C56.4656 9.44112 55.7917 10.083 54.9316 10.5322C54.0844 10.9815 53.1345 11.2062 52.0819 11.2062ZM52.0819 8.35643C52.7109 8.35643 53.2436 8.12537 53.68 7.66325C54.1293 7.20113 54.354 6.54004 54.354 5.67999C54.354 4.81993 54.1357 4.15884 53.6993 3.69672C53.2757 3.2346 52.7494 3.00355 52.1204 3.00355C51.4786 3.00355 50.9458 3.2346 50.5222 3.69672C50.0986 4.14601 49.8868 4.80709 49.8868 5.67999C49.8868 6.54004 50.0922 7.20113 50.503 7.66325C50.9266 8.12537 51.4529 8.35643 52.0819 8.35643ZM62.3586 1.82899C62.6795 1.32836 63.1224 0.924008 63.6872 0.615928C64.252 0.307848 64.9131 0.153809 65.6705 0.153809C66.5562 0.153809 67.3585 0.37845 68.0773 0.827733C68.7962 1.27702 69.361 1.91885 69.7718 2.75323C70.1954 3.58761 70.4072 4.55678 70.4072 5.66073C70.4072 6.76468 70.1954 7.74027 69.7718 8.58749C69.361 9.42187 68.7962 10.0701 68.0773 10.5322C67.3585 10.9815 66.5562 11.2062 65.6705 11.2062C64.9259 11.2062 64.2649 11.0521 63.6872 10.744C63.1224 10.436 62.6795 10.038 62.3586 9.55024V14.5111C61.8848 14.2563 61.3402 14.1289 60.7247 14.1289C60.1026 14.1289 59.5498 14.2533 59.066 14.5022V0.307849H62.3586V1.82899ZM67.0568 5.66073C67.0568 4.83919 66.8258 4.19735 66.3636 3.73523C65.9144 3.26028 65.356 3.0228 64.6885 3.0228C64.0338 3.0228 63.4754 3.26028 63.0133 3.73523C62.564 4.21019 62.3394 4.85844 62.3394 5.67999C62.3394 6.50153 62.564 7.14978 63.0133 7.62474C63.4754 8.09969 64.0338 8.33717 64.6885 8.33717C65.3431 8.33717 65.9015 8.09969 66.3636 7.62474C66.8258 7.13695 67.0568 6.48228 67.0568 5.66073ZM81.8198 6.46944C81.8583 6.13569 81.8776 5.81477 81.8776 5.50669C81.8776 4.42841 81.6465 3.48492 81.1844 2.67621C80.7351 1.8675 80.1061 1.24492 79.2974 0.808478C78.4887 0.372032 77.5645 0.153809 76.5247 0.153809C75.4593 0.153809 74.5158 0.37845 73.6942 0.827733C72.8727 1.27702 72.2309 1.91885 71.7687 2.75323C71.3194 3.58761 71.0948 4.5632 71.0948 5.67999C71.0948 6.79677 71.3259 7.77236 71.788 8.60674C72.2501 9.44112 72.8919 10.083 73.7135 10.5322C74.535 10.9815 75.4721 11.2062 76.5247 11.2062C77.3976 11.2062 78.187 11.0457 78.8931 10.7248C79.5991 10.4039 80.1832 9.96101 80.6453 9.3962C81.1202 8.83138 81.4476 8.19597 81.6273 7.48995H78.1229C77.802 8.18313 77.2307 8.52972 76.4092 8.52972C75.8572 8.52972 75.3887 8.35643 75.0036 8.00984C74.6313 7.65041 74.4195 7.13695 74.3681 6.46944H81.8198ZM77.9303 3.29237C78.3154 3.62612 78.508 4.07541 78.508 4.64022H74.3874C74.4773 4.04973 74.7083 3.59403 75.0806 3.27311C75.4657 2.9522 75.9342 2.79174 76.4862 2.79174C77.0638 2.79174 77.5452 2.95862 77.9303 3.29237ZM89.7762 0.192319C91.0342 0.192319 92.0354 0.603092 92.78 1.42464C93.5373 2.23335 93.916 3.35013 93.916 4.775V11.0521H90.6427V5.21787C90.6427 4.49901 90.4565 3.94062 90.0843 3.54268C89.712 3.14475 89.2114 2.94578 88.5824 2.94578C87.9534 2.94578 87.4528 3.14475 87.0805 3.54268C86.7082 3.94062 86.5221 4.49901 86.5221 5.21787V11.0521H83.2295V0.307849H86.5221V1.73272C86.8559 1.25776 87.3051 0.885498 87.8699 0.615928C88.4348 0.333522 89.0702 0.192319 89.7762 0.192319ZM60.7611 19.1902C60.1835 19.1902 59.7085 19.0233 59.3363 18.6895C58.9768 18.343 58.7971 17.9193 58.7971 17.4187C58.7971 16.9052 58.9768 16.4816 59.3363 16.1479C59.7085 15.8013 60.1835 15.628 60.7611 15.628C61.326 15.628 61.7881 15.8013 62.1475 16.1479C62.5198 16.4816 62.7059 16.9052 62.7059 17.4187C62.7059 17.9193 62.5198 18.343 62.1475 18.6895C61.7881 19.0233 61.326 19.1902 60.7611 19.1902ZM45.7671 25.6598C45.7671 24.5559 45.9725 23.5867 46.3832 22.7523C46.8069 21.918 47.3781 21.2761 48.0969 20.8268C48.8158 20.3776 49.6181 20.1529 50.5038 20.1529C51.2098 20.1529 51.8517 20.3005 52.4293 20.5958C53.0198 20.891 53.4819 21.289 53.8157 21.7896V16.8026H57.1083V31.0512H53.8157V29.5108C53.5076 30.0243 53.0647 30.4351 52.4871 30.7432C51.9223 31.0512 51.2612 31.2053 50.5038 31.2053C49.6181 31.2053 48.8158 30.9806 48.0969 30.5314C47.3781 30.0692 46.8069 29.421 46.3832 28.5866C45.9725 27.7394 45.7671 26.7638 45.7671 25.6598ZM53.8157 25.6791C53.8157 24.8576 53.5846 24.2093 53.1225 23.7343C52.6732 23.2594 52.1212 23.0219 51.4666 23.0219C50.8119 23.0219 50.2535 23.2594 49.7914 23.7343C49.3421 24.1965 49.1174 24.8383 49.1174 25.6598C49.1174 26.4814 49.3421 27.1361 49.7914 27.6239C50.2535 28.0988 50.8119 28.3363 51.4666 28.3363C52.1212 28.3363 52.6732 28.0988 53.1225 27.6239C53.5846 27.1489 53.8157 26.5006 53.8157 25.6791ZM70.4641 20.615C69.8993 20.307 69.2382 20.1529 68.4809 20.1529C67.5951 20.1529 66.7929 20.3776 66.074 20.8268C65.3551 21.2761 64.7839 21.918 64.3603 22.7523C63.9495 23.5867 63.7442 24.5559 63.7442 25.6598C63.7442 26.7638 63.9495 27.7394 64.3603 28.5866C64.7839 29.421 65.3551 30.0692 66.074 30.5314C66.7929 30.9806 67.5951 31.2053 68.4809 31.2053C69.2382 31.2053 69.8993 31.0512 70.4641 30.7432C71.0289 30.4222 71.4718 30.0115 71.7927 29.5108V31.032C71.7927 31.892 71.5873 32.5146 71.1766 32.8997C70.7786 33.2976 70.2395 33.4966 69.5592 33.4966C68.9943 33.4966 68.5194 33.3747 68.1343 33.1308C67.7492 32.8997 67.5053 32.5788 67.4026 32.168H64.1485C64.2897 33.4517 64.8545 34.4658 65.8429 35.2103C66.8314 35.9677 68.1214 36.3464 69.7132 36.3464C70.907 36.3464 71.9018 36.1089 72.6977 35.6339C73.5064 35.159 74.1033 34.5171 74.4884 33.7084C74.8864 32.9126 75.0853 32.0204 75.0853 31.032V20.307H71.7927V21.8281C71.4846 21.3275 71.0418 20.9231 70.4641 20.615ZM71.0995 23.7343C71.5617 24.2093 71.7927 24.8576 71.7927 25.6791C71.7927 26.5006 71.5617 27.1489 71.0995 27.6239C70.6503 28.0988 70.0983 28.3363 69.4436 28.3363C68.789 28.3363 68.2306 28.0988 67.7684 27.6239C67.3192 27.1361 67.0945 26.4814 67.0945 25.6598C67.0945 24.8383 67.3192 24.1965 67.7684 23.7343C68.2306 23.2594 68.789 23.0219 69.4436 23.0219C70.0983 23.0219 70.6503 23.2594 71.0995 23.7343ZM78.7382 19.1902C78.1606 19.1902 77.6856 19.0233 77.3133 18.6895C76.9539 18.343 76.7742 17.9193 76.7742 17.4187C76.7742 16.9052 76.9539 16.4816 77.3133 16.1479C77.6856 15.8013 78.1606 15.628 78.7382 15.628C79.303 15.628 79.7651 15.8013 80.1246 16.1479C80.4968 16.4816 80.683 16.9052 80.683 17.4187C80.683 17.9193 80.4968 18.343 80.1246 18.6895C79.7651 19.0233 79.303 19.1902 78.7382 19.1902ZM80.3749 20.307V31.0512H77.0823V20.307H80.3749ZM88.3642 31.0512V28.2593H87.1896C86.8302 28.2593 86.5735 28.1887 86.4194 28.0475C86.2654 27.9063 86.1884 27.6752 86.1884 27.3543V23.0412H88.3449V20.307H86.1884V17.6883H82.8958V20.307H81.5864V23.0412H82.8958V27.3158C82.8958 28.6379 83.2295 29.5943 83.897 30.1848C84.5645 30.7624 85.4952 31.0512 86.689 31.0512H88.3642ZM89.1585 25.6598C89.1585 24.5559 89.3638 23.5867 89.7746 22.7523C90.1982 21.918 90.7695 21.2761 91.4883 20.8268C92.2072 20.3776 93.0095 20.1529 93.8952 20.1529C94.6525 20.1529 95.3136 20.307 95.8784 20.615C96.4561 20.9231 96.899 21.3275 97.207 21.8281V20.307H100.5V31.0512H97.207V29.5301C96.8861 30.0307 96.4368 30.4351 95.8592 30.7432C95.2944 31.0512 94.6333 31.2053 93.8759 31.2053C93.003 31.2053 92.2072 30.9806 91.4883 30.5314C90.7695 30.0692 90.1982 29.421 89.7746 28.5866C89.3638 27.7394 89.1585 26.7638 89.1585 25.6598ZM97.207 25.6791C97.207 24.8576 96.976 24.2093 96.5139 23.7343C96.0646 23.2594 95.5126 23.0219 94.8579 23.0219C94.2033 23.0219 93.6449 23.2594 93.1827 23.7343C92.7335 24.1965 92.5088 24.8383 92.5088 25.6598C92.5088 26.4814 92.7335 27.1361 93.1827 27.6239C93.6449 28.0988 94.2033 28.3363 94.8579 28.3363C95.5126 28.3363 96.0646 28.0988 96.5139 27.6239C96.976 27.1489 97.207 26.5006 97.207 25.6791ZM105.789 31.0512V16.8026H102.497V31.0512H105.789ZM60.7248 20.6671C60.1196 20.6671 59.5798 20.5537 59.1054 20.3268V31.0514H62.398V20.3071H62.3432C61.8731 20.5471 61.3336 20.6671 60.7248 20.6671ZM104.15 37.6903C103.573 37.6903 103.098 37.5234 102.725 37.1897C102.366 36.8431 102.186 36.4195 102.186 35.9189C102.186 35.4054 102.366 34.9818 102.725 34.648C103.098 34.3014 103.573 34.1281 104.15 34.1281C104.715 34.1281 105.177 34.3014 105.537 34.648C105.909 34.9818 106.095 35.4054 106.095 35.9189C106.095 36.4195 105.909 36.8431 105.537 37.1897C105.177 37.5234 104.715 37.6903 104.15 37.6903ZM105.787 49.5514H102.494V38.8071H105.787V49.5514ZM62.398 35.3027V49.5514H59.1054V35.3027H62.398ZM49.7145 40.3282C50.0354 39.8276 50.4783 39.4233 51.0431 39.1152C51.6079 38.8071 52.269 38.6531 53.0264 38.6531C53.9121 38.6531 54.7144 38.8777 55.4333 39.327C56.1521 39.7763 56.7169 40.4181 57.1277 41.2525C57.5513 42.0869 57.7631 43.056 57.7631 44.16C57.7631 45.2639 57.5513 46.2395 57.1277 47.0867C56.7169 47.9211 56.1521 48.5694 55.4333 49.0315C54.7144 49.4808 53.9121 49.7054 53.0264 49.7054C52.2819 49.7054 51.6208 49.5514 51.0431 49.2433C50.4783 48.9352 50.0354 48.5373 49.7145 48.0495V54.6732H46.4219V38.8071H49.7145V40.3282ZM54.4127 44.16C54.4127 43.3384 54.1817 42.6966 53.7196 42.2345C53.2703 41.7595 52.7119 41.522 52.0444 41.522C51.3897 41.522 50.8313 41.7595 50.3692 42.2345C49.9199 42.7094 49.6953 43.3577 49.6953 44.1792C49.6953 45.0008 49.9199 45.649 50.3692 46.124C50.8313 46.5989 51.3897 46.8364 52.0444 46.8364C52.699 46.8364 53.2574 46.5989 53.7196 46.124C54.1817 45.6362 54.4127 44.9815 54.4127 44.16ZM64.5935 41.2525C64.1827 42.0869 63.9773 43.056 63.9773 44.16C63.9773 45.2639 64.1827 46.2395 64.5935 47.0867C65.0171 47.9211 65.5883 48.5694 66.3072 49.0315C67.026 49.4808 67.8219 49.7054 68.6948 49.7054C69.4522 49.7054 70.1132 49.5514 70.6781 49.2433C71.2557 48.9352 71.705 48.5309 72.0259 48.0302V49.5514H75.3185V38.8071H72.0259V40.3282C71.7178 39.8276 71.275 39.4233 70.6973 39.1152C70.1325 38.8071 69.4714 38.6531 68.7141 38.6531C67.8283 38.6531 67.026 38.8777 66.3072 39.327C65.5883 39.7763 65.0171 40.4181 64.5935 41.2525ZM71.3327 42.2345C71.7948 42.7094 72.0259 43.3577 72.0259 44.1792C72.0259 45.0008 71.7948 45.649 71.3327 46.124C70.8834 46.5989 70.3315 46.8364 69.6768 46.8364C69.0221 46.8364 68.4637 46.5989 68.0016 46.124C67.5523 45.6362 67.3277 44.9815 67.3277 44.16C67.3277 43.3384 67.5523 42.6966 68.0016 42.2345C68.4637 41.7595 69.0221 41.522 69.6768 41.522C70.3315 41.522 70.8834 41.7595 71.3327 42.2345ZM83.8621 38.6916C85.1201 38.6916 86.1214 39.1023 86.8659 39.9239C87.6233 40.7326 88.002 41.8494 88.002 43.2743V49.5514H84.7286V43.7171C84.7286 42.9983 84.5425 42.4399 84.1702 42.0419C83.798 41.644 83.2973 41.445 82.6683 41.445C82.0393 41.445 81.5387 41.644 81.1665 42.0419C80.7942 42.4399 80.6081 42.9983 80.6081 43.7171V49.5514H77.3155V38.8071H80.6081V40.232C80.9418 39.757 81.3911 39.3847 81.9559 39.1152C82.5207 38.8328 83.1561 38.6916 83.8621 38.6916ZM99.4554 39.9239C98.7108 39.1023 97.7096 38.6916 96.4516 38.6916C95.7456 38.6916 95.1102 38.8328 94.5453 39.1152C93.9805 39.3847 93.5312 39.757 93.1975 40.232V38.8071H89.9049V49.5514H93.1975V43.7171C93.1975 42.9983 93.3836 42.4399 93.7559 42.0419C94.1282 41.644 94.6288 41.445 95.2578 41.445C95.8868 41.445 96.3874 41.644 96.7597 42.0419C97.1319 42.4399 97.3181 42.9983 97.3181 43.7171V49.5514H100.591V43.2743C100.591 41.8494 100.213 40.7326 99.4554 39.9239ZM117.338 39.9239C116.594 39.1023 115.593 38.6916 114.335 38.6916C113.629 38.6916 112.993 38.8328 112.428 39.1152C111.864 39.3847 111.414 39.757 111.081 40.232V38.8071H107.788V49.5514H111.081V43.7171C111.081 42.9983 111.267 42.4399 111.639 42.0419C112.011 41.644 112.512 41.445 113.141 41.445C113.77 41.445 114.27 41.644 114.643 42.0419C115.015 42.4399 115.201 42.9983 115.201 43.7171V49.5514H118.474V43.2743C118.474 41.8494 118.096 40.7326 117.338 39.9239ZM125.007 38.6531C125.764 38.6531 126.425 38.8071 126.99 39.1152C127.568 39.4233 128.011 39.8276 128.319 40.3282V38.8071H131.611V49.5321C131.611 50.5205 131.412 51.4127 131.014 52.2086C130.629 53.0173 130.032 53.6591 129.224 54.1341C128.428 54.609 127.433 54.8465 126.239 54.8465C124.647 54.8465 123.357 54.4678 122.369 53.7104C121.381 52.9659 120.816 51.9518 120.675 50.6682H123.929C124.031 51.0789 124.275 51.3999 124.66 51.6309C125.045 51.8748 125.52 51.9968 126.085 51.9968C126.766 51.9968 127.305 51.7978 127.703 51.3999C128.113 51.0148 128.319 50.3922 128.319 49.5321V48.011C127.998 48.5116 127.555 48.9224 126.99 49.2433C126.425 49.5514 125.764 49.7054 125.007 49.7054C124.121 49.7054 123.319 49.4808 122.6 49.0315C121.881 48.5694 121.31 47.9211 120.886 47.0867C120.476 46.2395 120.27 45.2639 120.27 44.16C120.27 43.056 120.476 42.0869 120.886 41.2525C121.31 40.4181 121.881 39.7763 122.6 39.327C123.319 38.8777 124.121 38.6531 125.007 38.6531ZM128.319 44.1792C128.319 43.3577 128.088 42.7094 127.626 42.2345C127.176 41.7595 126.624 41.522 125.97 41.522C125.315 41.522 124.757 41.7595 124.294 42.2345C123.845 42.6966 123.621 43.3384 123.621 44.16C123.621 44.9815 123.845 45.6362 124.294 46.124C124.757 46.5989 125.315 46.8364 125.97 46.8364C126.624 46.8364 127.176 46.5989 127.626 46.124C128.088 45.649 128.319 45.0008 128.319 44.1792ZM32.787 2.07692C31.8842 2.07692 31.1524 2.80874 31.1524 3.71147C31.1524 4.61421 31.8842 5.34602 32.787 5.34602C33.6897 5.34602 34.4215 4.61421 34.4215 3.71147C34.4215 2.80874 33.6897 2.07692 32.787 2.07692ZM29.2294 3.71147C29.2294 1.74669 30.8222 0.153927 32.787 0.153927C34.7518 0.153927 36.3445 1.74669 36.3445 3.71147C36.3445 5.16283 35.4754 6.4112 34.2292 6.96452V47.764C35.4754 48.3173 36.3445 49.5657 36.3445 51.017C36.3445 52.9818 34.7518 54.5746 32.787 54.5746C31.4115 54.5746 30.2183 53.794 29.6263 52.6516L6.71817 52.6516C6.12618 53.794 4.93302 54.5746 3.55754 54.5746C1.59277 54.5746 0 52.9818 0 51.017C0 49.5657 0.86909 48.3173 2.11523 47.764V23.5023C0.86909 22.9489 0 21.7006 0 20.2492C0 18.2845 1.59277 16.6917 3.55754 16.6917C4.4857 16.6917 5.33084 17.0471 5.96427 17.6293L29.26 4.17956C29.2398 4.02639 29.2294 3.87014 29.2294 3.71147ZM7.11094 20.076C7.1137 20.1334 7.11509 20.1912 7.11509 20.2492C7.11509 21.7742 6.15562 23.075 4.80743 23.581V47.6853C5.83001 48.0691 6.62896 48.9101 6.95523 49.9594L29.3893 49.9594C29.7156 48.9101 30.5145 48.0691 31.537 47.6853L31.5371 7.04324C31.196 6.91523 30.8798 6.73636 30.5978 6.51586L7.11094 20.076ZM3.55754 18.6147C2.65481 18.6147 1.923 19.3465 1.923 20.2492C1.923 21.152 2.65481 21.8838 3.55754 21.8838C4.46028 21.8838 5.19209 21.152 5.19209 20.2492C5.19209 19.3465 4.46028 18.6147 3.55754 18.6147ZM32.787 49.3825C31.8842 49.3825 31.1524 50.1143 31.1524 51.017C31.1524 51.9198 31.8842 52.6516 32.787 52.6516C33.6897 52.6516 34.4215 51.9198 34.4215 51.017C34.4215 50.1143 33.6897 49.3825 32.787 49.3825ZM3.55754 49.3825C2.65481 49.3825 1.923 50.1143 1.923 51.017C1.923 51.9198 2.65481 52.6516 3.55754 52.6516C4.46028 52.6516 5.19209 51.9198 5.19209 51.017C5.19209 50.1143 4.46028 49.3825 3.55754 49.3825Z" fill="#1D1D1D"/>
</svg>