<svg xmlns="http://www.w3.org/2000/svg" viewBox="0 0 200 55">
  <!-- Open Digital Planning logo mark (simplified) -->
  <path fill-rule="evenodd" clip-rule="evenodd" d="M32.787 2.077c-.903 0-1.635.732-1.635 1.634 0 .903.732 1.635 1.635 1.635.902 0 1.634-.732 1.634-1.635 0-.902-.732-1.634-1.634-1.634zm-3.558 1.634c0-1.964 1.593-3.557 3.558-3.557 1.964 0 3.557 1.593 3.557 3.557 0 1.452-.869 2.7-2.115 3.253v40.8c1.246.553 2.115 1.801 2.115 3.253 0 1.965-1.593 3.557-3.557 3.557-1.376 0-2.569-.78-3.161-1.923H6.718c-.592 1.143-1.785 1.923-3.16 1.923C1.593 54.575 0 52.982 0 51.017c0-1.451.869-2.699 2.115-3.253V23.502c-1.246-.553-2.115-1.801-2.115-3.253 0-1.965 1.593-3.557 3.558-3.557.928 0 1.773.355 2.406.937l23.296-13.45a3.58 3.58 0 0 1-.031-.468zM7.111 20.076l.004.173c0 1.525-.96 2.826-2.308 3.332v24.104c1.023.384 1.822 1.225 2.148 2.274h22.434c.326-1.049 1.125-1.89 2.148-2.274V7.043a3.589 3.589 0 0 1-.94-.527L7.111 20.076zM3.558 18.615c-.903 0-1.635.732-1.635 1.634 0 .903.732 1.635 1.635 1.635.902 0 1.634-.732 1.634-1.635 0-.902-.732-1.634-1.634-1.634zm29.229 30.767c-.903 0-1.635.732-1.635 1.635 0 .903.732 1.634 1.635 1.634.902 0 1.634-.731 1.634-1.634 0-.903-.732-1.635-1.634-1.635zm-29.229 0c-.903 0-1.635.732-1.635 1.635 0 .903.732 1.634 1.635 1.634.902 0 1.634-.731 1.634-1.634 0-.903-.732-1.635-1.634-1.635z" fill="#1D1D1D"/>
  <!-- "digital planning register" text -->
  <text x="44" y="22" font-family="Arial, Helvetica, sans-serif" font-size="14" font-weight="bold" fill="#1D1D1D">digital planning</text>
  <text x="44" y="42" font-family="Arial, Helvetica, sans-serif" font-size="14" font-weight="bold" fill="#1D1D1D">register</text>
</svg>
