<?xml version="1.0" encoding="utf-8" standalone="yes"?>
<!DOCTYPE svg PUBLIC "-//W3C//DTD SVG 1.1//EN" "http://www.w3.org/Graphics/SVG/1.1/DTD/svg11.dtd">
<svg width="62" height="62" viewBox="0 0 62 62" style="fill:none;stroke:none;fill-rule:evenodd;clip-rule:evenodd;stroke-linecap:round;stroke-linejoin:round;stroke-miterlimit:1.5;" version="1.1" xmlns="http://www.w3.org/2000/svg" xmlns:xlink="http://www.w3.org/1999/xlink"><g id="items" style="isolation: isolate"><g id="blend" style="mix-blend-mode: normal"><g id="g-root-logo_1ha32e3nmepzd-fill" data-item-order="0" transform="translate(3, 3)"></g><g id="g-root-logo_1ha32e3nmepzd-stroke" data-item-order="0" transform="translate(3, 3)"><g id="logo_1ha32e3nmepzd-stroke" fill="none" stroke-linecap="round" stroke-linejoin="round" stroke-miterlimit="4" stroke="#484848" stroke-width="2"><g><path d="M 30.26335 15.359335C 31.216301 15.283165 32.215 15.24268 33.243851 15.24268C 39.874603 15.24268 45.249851 16.924599 45.249851 18.99934C 45.249851 21.074095 39.874603 22.756016 33.243851 22.756016C 32.215 22.756016 31.216301 22.715515 30.26335 22.639345M 45.25 24.933355C 45.25 27.003399 39.883301 28.690001 33.243999 28.690001C 32.211098 28.690001 31.209249 28.6507 30.254049 28.576149M 45.25 31.066601C 45.25 33.1366 39.883301 34.808052 33.243999 34.808052C 32.210949 34.808052 31.209099 34.766052 30.253601 34.687599M 45.249851 18.999355L 45.249851 37.000748C 45.249851 39.070751 39.867851 40.757351 33.243851 40.757351C 32.2099 40.757351 31.206551 40.716251 30.249401 40.639M 30.254049 45.25L 10.75 40.757351L 10.75 15.257996L 30.254049 10.75L 30.254049 45.25ZM 24.856735 33.243999L 20.502069 21.05398L 16.147406 33.243999M 17.742069 28.75135L 23.246725 28.75135"></path></g></g></g></g></g></svg>