<?xml version="1.0" encoding="utf-8" standalone="yes"?>
<!DOCTYPE svg PUBLIC "-//W3C//DTD SVG 1.1//EN" "http://www.w3.org/Graphics/SVG/1.1/DTD/svg11.dtd">
<svg width="62" height="62" viewBox="0 0 62 62" style="fill:none;stroke:none;fill-rule:evenodd;clip-rule:evenodd;stroke-linecap:round;stroke-linejoin:round;stroke-miterlimit:1.5;" version="1.1" xmlns="http://www.w3.org/2000/svg" xmlns:xlink="http://www.w3.org/1999/xlink"><g id="items" style="isolation: isolate"><g id="blend" style="mix-blend-mode: normal"><g id="g-root-text_zkodzvnmepe0-fill" data-item-order="0" transform="translate(3, 3)"></g><g id="g-root-text_zkodzvnmepe0-stroke" data-item-order="0" transform="translate(3, 3)"><g id="text_zkodzvnmepe0-stroke" fill="none" stroke-linecap="round" stroke-linejoin="round" stroke-miterlimit="4" stroke="#484848" stroke-width="2"><g><path d="M 40.75 30.859001C 43.105339 29.770241 44.581764 27.379015 44.499996 24.7855C 44.471603 22.866314 43.663738 21.041248 42.262142 19.729908C 40.86055 18.418568 38.985828 17.733786 37.069 17.833C 35.35989 14.393121 31.841 12.226844 28 12.25C 22.765785 12.179777 18.380125 16.193558 17.987499 21.4135C 16.424858 21.069933 14.790498 21.444935 13.533941 22.435364C 12.277384 23.425793 11.530971 24.927336 11.5 26.527C 11.375261 28.865057 12.962808 30.949186 15.25 31.450001M 35.5 43.75L 20.5 43.75C 19.671574 43.75 19 43.078426 19 42.25L 19 27.25C 19 26.421572 19.671574 25.75 20.5 25.75L 35.5 25.75C 36.328426 25.75 37 26.421572 37 27.25L 37 42.25C 37 43.078426 36.328426 43.75 35.5 43.75ZM 23.5 30.25L 32.5 30.25M 23.5 34.75L 32.5 34.75M 23.5 39.25L 26.875 39.25"></path></g></g></g></g></g></svg>