<?xml version="1.0" encoding="utf-8" standalone="yes"?>
<!DOCTYPE svg PUBLIC "-//W3C//DTD SVG 1.1//EN" "http://www.w3.org/Graphics/SVG/1.1/DTD/svg11.dtd">
<svg width="62" height="62" viewBox="0 0 62 62" style="fill:none;stroke:none;fill-rule:evenodd;clip-rule:evenodd;stroke-linecap:round;stroke-linejoin:round;stroke-miterlimit:1.5;" version="1.1" xmlns="http://www.w3.org/2000/svg" xmlns:xlink="http://www.w3.org/1999/xlink"><g id="items" style="isolation: isolate"><g id="blend" style="mix-blend-mode: normal"><g id="g-root-arro_1hi75crnmu4u8-fill" data-item-order="0" transform="translate(3, 3)"></g><g id="g-root-arro_1hi75crnmu4u8-stroke" data-item-order="0" transform="translate(3, 3)"><g id="arro_1hi75crnmu4u8-stroke" fill="none" stroke-linecap="round" stroke-linejoin="round" stroke-miterlimit="4" stroke="#484848" stroke-width="2"><g><path d="M 35.5495 35.5C 35.5495 37.225616 36.948387 38.6245 38.674 38.6245C 40.399612 38.6245 41.7985 37.225616 41.7985 35.5C 41.7985 33.774384 40.399612 32.3755 38.674 32.3755C 36.948387 32.3755 35.5495 33.774384 35.5495 35.5M 36.5905 44.875L 44.923 44.875C 44.424286 42.924339 43.043274 41.318459 41.18927 40.533302C 39.335266 39.748146 37.22097 39.873791 35.473 40.873001M 14.2015 35.5C 14.2015 37.225616 15.600387 38.6245 17.326 38.6245C 19.051613 38.6245 20.4505 37.225616 20.4505 35.5C 20.4505 33.774384 19.051613 32.3755 17.326 32.3755C 15.600387 32.3755 14.2015 33.774384 14.2015 35.5M 19.365999 44.875L 11.077 44.875C 11.573722 42.934029 12.944211 41.334095 14.785876 40.545189C 16.627541 39.756279 18.731241 39.867989 20.479 40.847504M 35.6185 44.875C 35.657108 42.120422 34.209671 39.558403 31.830364 38.169853C 29.451057 36.781296 26.50844 36.781296 24.129133 38.169853C 21.749826 39.558403 20.302391 42.120422 20.341 44.874996ZM 24.013 28.3465C 26.179377 30.591885 29.5096 31.261513 32.3755 30.028M 23.387501 30.6385C 23.387501 33.131241 25.408264 35.152 27.901001 35.152C 30.393738 35.152 32.414501 33.131241 32.414501 30.6385C 32.414501 28.145763 30.393738 26.125002 27.901001 26.125002C 25.408264 26.125002 23.387501 28.145763 23.387501 30.6385M 37.729 29.125C 37.729 29.125 33.229 24.625 33.229 20.875L 39.979 20.875L 27.979 11.125L 15.979 20.875L 22.729 20.875C 22.729 24.625 18.229 29.125 18.229 29.125"></path></g></g></g></g></g></svg>