<?xml version="1.0" encoding="utf-8" standalone="yes"?>
<!DOCTYPE svg PUBLIC "-//W3C//DTD SVG 1.1//EN" "http://www.w3.org/Graphics/SVG/1.1/DTD/svg11.dtd">
<svg width="62" height="62" viewBox="0 0 62 62" style="fill:none;stroke:none;fill-rule:evenodd;clip-rule:evenodd;stroke-linecap:round;stroke-linejoin:round;stroke-miterlimit:1.5;" version="1.1" xmlns="http://www.w3.org/2000/svg" xmlns:xlink="http://www.w3.org/1999/xlink"><g id="items" style="isolation: isolate"><g id="blend" style="mix-blend-mode: normal"><g id="g-root-netw_qtesijnmhhqd-fill" data-item-order="0" transform="translate(3, 3)"></g><g id="g-root-netw_qtesijnmhhqd-stroke" data-item-order="0" transform="translate(3, 3)"><g id="netw_qtesijnmhhqd-stroke" fill="none" stroke-linecap="round" stroke-linejoin="round" stroke-miterlimit="4" stroke="#484848" stroke-width="2"><g><path d="M 15.871 15.871L 17.5285 18.673M 10.75 13.75C 10.75 15.406855 12.093145 16.75 13.75 16.75C 15.406855 16.75 16.75 15.406855 16.75 13.75C 16.75 12.093145 15.406855 10.75 13.75 10.75C 12.093145 10.75 10.75 12.093145 10.75 13.75M 25.75 13.75C 25.75 15.406855 27.093145 16.75 28.75 16.75C 30.406855 16.75 31.75 15.406855 31.75 13.75C 31.75 12.093145 30.406855 10.75 28.75 10.75C 27.093145 10.75 25.75 12.093145 25.75 13.75M 25.75 42.25C 25.75 43.906857 27.093145 45.25 28.75 45.25C 30.406855 45.25 31.75 43.906857 31.75 42.25C 31.75 40.593143 30.406855 39.25 28.75 39.25C 27.093145 39.25 25.75 40.593143 25.75 42.25M 39.25 13.75C 39.25 15.406855 40.593143 16.75 42.25 16.75C 43.906857 16.75 45.25 15.406855 45.25 13.75C 45.25 12.093145 43.906857 10.75 42.25 10.75C 40.593143 10.75 39.25 12.093145 39.25 13.75M 39.25 42.25C 39.25 43.906857 40.593143 45.25 42.25 45.25C 43.906857 45.25 45.25 43.906857 45.25 42.25C 45.25 40.593143 43.906857 39.25 42.25 39.25C 40.593143 39.25 39.25 40.593143 39.25 42.25M 10.75 42.25C 10.75 43.906857 12.093145 45.25 13.75 45.25C 15.406855 45.25 16.75 43.906857 16.75 42.25C 16.75 40.593143 15.406855 39.25 13.75 39.25C 12.093145 39.25 10.75 40.593143 10.75 42.25M 15.871 40.129002L 17.5285 37.423M 38.5285 18.673L 40.130501 15.8695M 38.5285 37.423L 40.129002 40.129002M 28.7155 38.923L 28.7155 37.423M 28.7155 18.673L 28.7155 17.173M 22.999001 34L 21.6085 34C 19.29184 33.714638 17.539331 31.766338 17.5 29.432501C 17.499519 28.193678 18.003416 27.008053 18.895655 26.14864C 19.787891 25.289227 20.991566 24.830105 22.2295 24.877001C 23.468937 22.229519 26.348871 20.762825 29.219036 21.317369C 32.089203 21.871914 34.215496 24.305859 34.379501 27.224499C 35.387966 27.015169 36.437092 27.270851 37.236168 27.9207C 38.03524 28.570549 38.49939 29.545538 38.5 30.5755C 38.489487 31.520575 38.093708 32.420418 37.404228 33.06686C 36.714745 33.713306 35.79129 34.050343 34.8475 34L 22.997499 34Z"></path></g></g></g></g></g></svg>