<?xml version="1.0" encoding="utf-8" standalone="yes"?>
<!DOCTYPE svg PUBLIC "-//W3C//DTD SVG 1.1//EN" "http://www.w3.org/Graphics/SVG/1.1/DTD/svg11.dtd">
<svg width="62" height="62" viewBox="0 0 62 62" style="fill:none;stroke:none;fill-rule:evenodd;clip-rule:evenodd;stroke-linecap:round;stroke-linejoin:round;stroke-miterlimit:1.5;" version="1.1" xmlns="http://www.w3.org/2000/svg" xmlns:xlink="http://www.w3.org/1999/xlink"><g id="items" style="isolation: isolate"><g id="blend" style="mix-blend-mode: normal"><g id="g-root-moni_dj78bfnmah3g-fill" data-item-order="0" transform="translate(3, 3)"></g><g id="g-root-moni_dj78bfnmah3g-stroke" data-item-order="0" transform="translate(3, 3)"><g id="moni_dj78bfnmah3g-stroke" fill="none" stroke-linecap="round" stroke-linejoin="round" stroke-miterlimit="4" stroke="#484848" stroke-width="2"><g><path d="M 12.25 10.75L 30.25 10.75C 30.25 10.75 31.75 10.75 31.75 12.25L 31.75 24.25C 31.75 24.25 31.75 25.75 30.25 25.75L 12.25 25.75C 12.25 25.75 10.75 25.75 10.75 24.25L 10.75 12.25C 10.75 12.25 10.75 10.75 12.25 10.75M 21.25 25.75L 21.25 30.25M 16 30.25L 26.5 30.25M 10.75 22L 31.75 22M 36.25 23.5L 36.25 26.5M 37.75 25L 34.75 25M 31 28.75L 31 31.75M 32.5 30.25L 29.5 30.25M 34.314999 40C 35.5 37.75 37 35.5 37 35.5L 37 30.25C 37 29.835787 37.335785 29.5 37.75 29.5L 40 29.5C 40.414215 29.5 40.75 29.835787 40.75 30.25L 40.75 35.5C 40.75 35.635002 45.055 43 45.055 43C 45.322155 43.462704 45.323021 44.032589 45.057274 44.496101C 44.791523 44.959618 44.299282 45.246788 43.764999 45.25L 34.360001 45.25M 34.314999 40L 43.300003 40M 28 43.375C 28 44.410538 28.839466 45.25 29.875 45.25C 30.910534 45.25 31.75 44.410538 31.75 43.375L 31.75 35.5L 28 35.5Z"></path></g></g></g></g></g></svg>