<?xml version="1.0" encoding="UTF-8"?>
<svg width="256px" height="256px" viewBox="0 0 256 256" version="1.1" xmlns="http://www.w3.org/2000/svg" xmlns:xlink="http://www.w3.org/1999/xlink" preserveAspectRatio="xMidYMid">
    <defs>
        <linearGradient x1="49.9998052%" y1="0.817307692%" x2="49.9998052%" y2="99.9992306%" id="linearGradient-1">
            <stop stop-color="#F2F2F2" offset="0%"></stop>
            <stop stop-color="#F2F2F2" offset="100%"></stop>
        </linearGradient>
    </defs>
    <g>
        <path d="M157.667,189.876 C180.101,178.371 193.381,158.322 193.381,135.287 C193.381,112.252 180.101,92.204 157.667,80.698 L146.538,149.57 L157.667,189.876 Z M128.001,195.347 C146.254,195.347 161.96,185.223 170.551,169.931 L149.859,112.361 L97.649,112.361 L102.214,132.034 L128.001,195.347 Z M88.335,92.204 C65.901,103.709 52.619,123.758 52.619,146.792 C52.619,169.826 65.901,189.876 88.335,201.38 L99.463,132.51 L88.335,92.204 Z M53.046,185.223 C22.568,159.84 15.38,117.16 36.222,83.108 C47.983,63.46 69.433,49.744 93.968,46.65 L122.572,146.792 L53.046,185.223 Z M192.954,169.826 C223.432,144.443 230.623,101.762 209.776,67.711 C198.014,48.063 176.569,34.345 152.03,31.251 L123.429,131.393 L192.954,169.826 Z M116.871,60.811 C102.881,60.811 91.319,69.863 86.755,82.53 L128.001,60.811 L169.246,60.811 C164.683,69.863 153.121,60.811 139.132,60.811 L116.871,60.811 Z M128.001,256 C57.312,256 0,198.688 0,128 C0,57.312 57.312,0 128.001,0 C198.688,0 256,57.312 256,128 C256,198.688 198.688,256 128.001,256 Z" fill="#FF3621"></path>
    </g>
</svg> 