<svg width="540" height="362" viewBox="0 0 540 362" fill="none" xmlns="http://www.w3.org/2000/svg">
<path d="M539.733 314.54V362H536.546V314.54H539.733Z" fill="#F65D5A"/>
<path d="M487.515 348.576H512.465L499.99 317.591L487.515 348.576ZM513.55 351.355H486.43L482.158 362H478.768L497.956 314.54H502.024L521.279 362H517.889L513.55 351.355Z" fill="#F65D5A"/>
<path d="M443.649 359.288V362H414.97V314.54H443.649V317.32H418.156V337.389H440.463V340.168H418.156V359.288H443.649Z" fill="#0D8EA2"/>
<path d="M381.404 362H378.014L360.657 314.54H364.047L379.709 357.729L395.371 314.54H398.761L381.404 362Z" fill="#0D8EA2"/>
<path d="M319.696 348.576H344.647L332.172 317.591L319.696 348.576ZM345.732 351.355H318.612L314.34 362H310.95L330.138 314.54H334.206L353.461 362H350.071L345.732 351.355Z" fill="#0D8EA2"/>
<path d="M273.12 316.099L286.002 357.118L299.766 314.54H303.02L287.697 362H284.511L271.629 321.117L258.815 362H255.56L240.305 314.54H243.56L257.255 357.118L270.137 316.099H273.12Z" fill="#0D8EA2"/>
<path d="M513.344 236.728V271.672C513.344 278.712 516.8 281.528 521.024 281.528C524.992 281.528 528.832 279.224 528.832 274.488C528.832 273.592 528.704 271.16 527.808 269.24C531.52 269.24 534.976 269.24 538.688 269.24C539.84 271.8 539.84 276.152 539.84 276.152C539.84 285.24 533.312 292.408 520.896 292.408C510.784 292.408 500.928 287.16 500.928 270.776V236.728H490.432V227H500.928L503.744 208.568H513.344V227H533.696V236.728H513.344Z" fill="#2F333D"/>
<path d="M410.87 259C410.87 240.696 423.414 225.592 442.614 225.592C451.19 225.592 459.638 228.536 465.782 237.24V227H478.198V291H465.782V280.76C459.638 289.464 451.19 292.408 442.614 292.408C423.414 292.408 410.87 277.304 410.87 259ZM466.038 259C465.91 246.072 457.078 236.6 444.15 236.6C430.838 236.6 423.286 246.84 423.286 259C423.286 271.16 430.838 281.4 444.15 281.4C457.078 281.4 465.91 271.928 466.038 259Z" fill="#2F333D"/>
<path d="M391.833 273.336L398.745 280.504C390.553 289.72 380.185 292.408 370.713 292.408C348.441 292.408 334.617 277.432 334.617 259.256C334.617 240.568 349.209 225.592 369.049 225.592C385.945 225.592 401.689 236.472 401.689 260.152H347.033C346.649 272.568 356.633 281.4 370.841 281.4C378.521 281.4 385.433 278.84 391.833 273.336ZM369.305 236.472C361.753 236.472 352.409 239.416 348.185 250.552H388.889C385.433 238.904 376.345 236.472 369.305 236.472Z" fill="#2F333D"/>
<path d="M306.397 227V241.464C308.573 231.352 315.613 225.592 323.549 225.592C325.853 225.592 327.645 226.232 329.437 227V239.16C327.389 238.008 324.957 237.496 322.653 237.496C318.429 237.496 306.397 239.544 306.397 266.808V291H293.981V227H306.397Z" fill="#2F333D"/>
<path d="M242.352 211.512C223.92 211.512 208.944 226.872 208.944 246.328C208.944 263.736 220.592 280.888 244.144 280.888C252.336 280.888 259.12 278.84 265.264 274.872V256.568H240.048V246.2H276.912V279.864C265.52 290.232 252.464 292.408 243.504 292.408C215.856 292.408 195.888 271.672 195.888 246.456C195.888 220.6 216.752 199.992 242.352 199.992C254.896 199.992 265.264 202.552 274.992 209.848L270 219.704C257.2 211.64 250.16 211.512 242.352 211.512Z" fill="#2F333D"/>
<g filter="url(#filter0_i_64_3)">
<path d="M152.67 257.81C126.35 180.6 160.7 99.03 229.39 75.62C252.53 67.73 276.62 67.46 299.39 73.51C270.04 29.78 220.15 1 163.52 1C73.21 1 0 74.21 0 164.52C0 254.83 73.21 328.04 163.52 328.04C174.67 328.04 185.56 326.92 196.08 324.79C177.13 307.47 161.83 284.68 152.67 257.81Z" fill="url(#paint0_linear_64_3)"/>
</g>
<g filter="url(#filter1_i_64_3)">
<path d="M100.91 261.48C100.91 179.91 160.67 113.78 234.38 113.78C270.22 113.78 302.77 129.42 326.74 154.86C321.75 69.05 250.59 1 163.52 1C76.45 1 0 74.21 0 164.52C0 236.7 46.78 297.96 111.67 319.64C104.75 301.79 100.92 282.13 100.92 261.48H100.91Z" fill="url(#paint1_linear_64_3)"/>
</g>
<g filter="url(#filter2_i_64_3)">
<path d="M53.11 253.48C53.11 175.96 115.95 113.11 193.48 113.11C252 113.11 302.14 148.92 323.21 199.82C325.71 188.45 327.04 176.64 327.04 164.52C327.04 74.21 253.83 1 163.52 1C73.21 1 0 74.22 0 164.53C0 214.49 22.41 259.2 57.71 289.19C54.72 277.79 53.11 265.82 53.11 253.48Z" fill="url(#paint2_linear_64_3)"/>
</g>
<path d="M156.138 0.291409C156.138 0.291409 130.298 -0.771053 146.138 23.1578C172.352 40.1581 171.138 50.7914 204.638 80.7914C214.638 104.291 285.638 135.291 308.138 172.791C318.138 183.791 323.138 199.291 323.138 199.291C323.138 199.291 340.941 143.791 308.138 85.7914C273.638 24.7915 211.138 -3.20859 156.138 0.291409Z" fill="url(#paint3_linear_64_3)"/>
<defs>
<filter id="filter0_i_64_3" x="0" y="-3" width="303.39" height="331.04" filterUnits="userSpaceOnUse" color-interpolation-filters="sRGB">
<feFlood flood-opacity="0" result="BackgroundImageFix"/>
<feBlend mode="normal" in="SourceGraphic" in2="BackgroundImageFix" result="shape"/>
<feColorMatrix in="SourceAlpha" type="matrix" values="0 0 0 0 0 0 0 0 0 0 0 0 0 0 0 0 0 0 127 0" result="hardAlpha"/>
<feOffset dx="4" dy="-4"/>
<feGaussianBlur stdDeviation="10"/>
<feComposite in2="hardAlpha" operator="arithmetic" k2="-1" k3="1"/>
<feColorMatrix type="matrix" values="0 0 0 0 0.184314 0 0 0 0 0.2 0 0 0 0 0.239216 0 0 0 0.24 0"/>
<feBlend mode="normal" in2="shape" result="effect1_innerShadow_64_3"/>
</filter>
<filter id="filter1_i_64_3" x="0" y="-3" width="330.74" height="322.64" filterUnits="userSpaceOnUse" color-interpolation-filters="sRGB">
<feFlood flood-opacity="0" result="BackgroundImageFix"/>
<feBlend mode="normal" in="SourceGraphic" in2="BackgroundImageFix" result="shape"/>
<feColorMatrix in="SourceAlpha" type="matrix" values="0 0 0 0 0 0 0 0 0 0 0 0 0 0 0 0 0 0 127 0" result="hardAlpha"/>
<feOffset dx="4" dy="-4"/>
<feGaussianBlur stdDeviation="10"/>
<feComposite in2="hardAlpha" operator="arithmetic" k2="-1" k3="1"/>
<feColorMatrix type="matrix" values="0 0 0 0 0.184314 0 0 0 0 0.2 0 0 0 0 0.239216 0 0 0 0.25 0"/>
<feBlend mode="normal" in2="shape" result="effect1_innerShadow_64_3"/>
</filter>
<filter id="filter2_i_64_3" x="0" y="-3" width="331.04" height="292.19" filterUnits="userSpaceOnUse" color-interpolation-filters="sRGB">
<feFlood flood-opacity="0" result="BackgroundImageFix"/>
<feBlend mode="normal" in="SourceGraphic" in2="BackgroundImageFix" result="shape"/>
<feColorMatrix in="SourceAlpha" type="matrix" values="0 0 0 0 0 0 0 0 0 0 0 0 0 0 0 0 0 0 127 0" result="hardAlpha"/>
<feOffset dx="4" dy="-4"/>
<feGaussianBlur stdDeviation="10"/>
<feComposite in2="hardAlpha" operator="arithmetic" k2="-1" k3="1"/>
<feColorMatrix type="matrix" values="0 0 0 0 0.184314 0 0 0 0 0.2 0 0 0 0 0.239216 0 0 0 0.25 0"/>
<feBlend mode="normal" in2="shape" result="effect1_innerShadow_64_3"/>
</filter>
<linearGradient id="paint0_linear_64_3" x1="62.87" y1="258.35" x2="245.51" y2="35.47" gradientUnits="userSpaceOnUse">
<stop stop-color="#2F333D"/>
<stop offset="0.28" stop-color="#2F333D" stop-opacity="0.93"/>
<stop offset="0.58" stop-color="#2F333D" stop-opacity="0.72"/>
<stop offset="0.88" stop-color="#2F333D" stop-opacity="0.37"/>
<stop offset="1" stop-color="#2F333D" stop-opacity="0.2"/>
</linearGradient>
<linearGradient id="paint1_linear_64_3" x1="114.97" y1="247.92" x2="253.42" y2="-55.4" gradientUnits="userSpaceOnUse">
<stop stop-color="#EB5D5D"/>
<stop offset="0.401672" stop-color="#EB5D5D" stop-opacity="0.99"/>
<stop offset="0.503716" stop-color="#EB5D5D" stop-opacity="0.96"/>
<stop offset="0.57" stop-color="#EB5D5D" stop-opacity="0.91"/>
<stop offset="0.65" stop-color="#EB5D5D" stop-opacity="0.84"/>
<stop offset="0.71" stop-color="#EB5D5D" stop-opacity="0.75"/>
<stop offset="0.77" stop-color="#EB5D5D" stop-opacity="0.63"/>
<stop offset="0.82" stop-color="#EB5D5D" stop-opacity="0.49"/>
<stop offset="0.86" stop-color="#EB5D5D" stop-opacity="0.33"/>
<stop offset="0.91" stop-color="#EB5D5D" stop-opacity="0.16"/>
<stop offset="0.94" stop-color="#EB5D5D" stop-opacity="0"/>
</linearGradient>
<linearGradient id="paint2_linear_64_3" x1="29.38" y1="295.96" x2="354.54" y2="-61.61" gradientUnits="userSpaceOnUse">
<stop stop-color="#EB5D5C" stop-opacity="0.6"/>
<stop offset="0.182884" stop-color="#907179" stop-opacity="0.71"/>
<stop offset="0.353836" stop-color="#067889" stop-opacity="0.83"/>
<stop offset="0.539471" stop-color="#0D8EA2"/>
</linearGradient>
<linearGradient id="paint3_linear_64_3" x1="196" y1="191" x2="523.591" y2="-47.1632" gradientUnits="userSpaceOnUse">
<stop offset="0.245292" stop-color="white" stop-opacity="0"/>
<stop offset="0.543492" stop-color="white" stop-opacity="0.2"/>
</linearGradient>
</defs>
</svg>
