<svg width="120" height="60" viewBox="0 0 120 60" xmlns="http://www.w3.org/2000/svg">
  <defs>
    <linearGradient id="greenGradient" x1="0%" y1="0%" x2="100%" y2="100%">
      <stop offset="0%" style="stop-color:#2E8B57;stop-opacity:1" />
      <stop offset="100%" style="stop-color:#228B22;stop-opacity:1" />
    </linearGradient>
    <linearGradient id="techGradient" x1="0%" y1="0%" x2="100%" y2="0%">
      <stop offset="0%" style="stop-color:#1E90FF;stop-opacity:1" />
      <stop offset="100%" style="stop-color:#4169E1;stop-opacity:1" />
    </linearGradient>
  </defs>
  
  <!-- Bridge structure -->
  <path d="M5 35 Q30 20 60 35 Q90 20 115 35 L115 40 Q90 25 60 40 Q30 25 5 40 Z" fill="url(#greenGradient)"/>
  
  <!-- AI/Tech circuit pattern -->
  <g stroke="url(#techGradient)" stroke-width="1.5" fill="none">
    <circle cx="25" cy="15" r="3"/>
    <circle cx="45" cy="12" r="2"/>
    <circle cx="65" cy="18" r="2.5"/>
    <circle cx="85" cy="14" r="2"/>
    <line x1="25" y1="15" x2="45" y2="12"/>
    <line x1="45" y1="12" x2="65" y2="18"/>
    <line x1="65" y1="18" x2="85" y2="14"/>
  </g>
  
  <!-- Parking spaces indicator -->
  <g fill="url(#techGradient)" opacity="0.7">
    <rect x="15" y="45" width="8" height="6" rx="1"/>
    <rect x="27" y="45" width="8" height="6" rx="1"/>
    <rect x="39" y="45" width="8" height="6" rx="1"/>
    <rect x="75" y="45" width="8" height="6" rx="1"/>
    <rect x="87" y="45" width="8" height="6" rx="1"/>
    <rect x="99" y="45" width="8" height="6" rx="1"/>
  </g>
  
  <!-- License plate representation -->
  <rect x="51" y="44" width="18" height="8" rx="2" fill="#FFFFFF" stroke="url(#techGradient)" stroke-width="1"/>
  <text x="60" y="49.5" font-family="monospace" font-size="6" text-anchor="middle" fill="url(#techGradient)">GB25</text>
</svg> 