<?xml version="1.0" encoding="UTF-8" standalone="no"?>
<svg
   xmlns:dc="http://purl.org/dc/elements/1.1/"
   xmlns:cc="http://creativecommons.org/ns#"
   xmlns:rdf="http://www.w3.org/1999/02/22-rdf-syntax-ns#"
   xmlns:svg="http://www.w3.org/2000/svg"
   xmlns="http://www.w3.org/2000/svg"
   xmlns:sodipodi="http://sodipodi.sourceforge.net/DTD/sodipodi-0.dtd"
   xmlns:inkscape="http://www.inkscape.org/namespaces/inkscape"
   width="100"
   height="100"
   viewBox="0 0 100 100"
   version="1.1"
   id="unicorn-counter-logo">
  <g id="unicorn" transform="translate(10,10) scale(0.8,0.8)">
    <path
       style="fill:#8b5cf6;fill-opacity:1;stroke:#000000;stroke-width:1.5;stroke-linecap:butt;stroke-linejoin:miter;stroke-opacity:1"
       d="m 24.461245,28.376263 c 0,0 4.65695,7.37254 9.54613,8.77777 4.88918,1.40523 28.94884,5.82732 34.65704,4.52584 5.7082,-1.30148 13.5513,-8.02454 13.5513,-8.02454 0,0 -7.54972,12.55098 -14.38434,15.74754 -6.83462,3.19656 -26.10855,5.57883 -27.82333,5.57883 -1.71478,0 -10.05066,-1.20361 -13.78159,-4.64994 -3.73093,-3.44633 -8.19464,-12.7871 -8.19464,-12.7871 0,0 5.53006,-7.1484 6.42943,-9.1664 z"
       id="head" />
    <path
       style="fill:none;stroke:#000000;stroke-width:1.5;stroke-linecap:butt;stroke-linejoin:miter;stroke-opacity:1"
       d="m 32.53358,36.90328 c 0,0 10.88732,0.97214 19.97301,0.97214 9.08569,0 21.21166,-0.83982 21.21166,-0.83982"
       id="mouth" />
    <path
       style="fill:#000000;fill-opacity:1;stroke:#000000;stroke-width:1px;stroke-linecap:butt;stroke-linejoin:miter;stroke-opacity:1"
       d="m 39.44582,27.40429 c 0,0 -1.00452,-1.87512 0.46784,-2.6689 1.47236,-0.79378 3.09427,1.2729 3.09427,1.2729 0,0 -1.58897,-0.1662 -2.1567,0.13296 -0.56773,0.29916 -1.40541,1.26304 -1.40541,1.26304 z"
       id="eye-left" />
    <path
       style="fill:#000000;fill-opacity:1;stroke:#000000;stroke-width:1px;stroke-linecap:butt;stroke-linejoin:miter;stroke-opacity:1"
       d="m 64.16134,25.67077 c 0,0 -1.00452,-1.87512 0.46784,-2.6689 1.47235,-0.79378 3.09426,1.2729 3.09426,1.2729 0,0 -1.58896,-0.1662 -2.15669,0.13296 -0.56773,0.29916 -1.40541,1.26304 -1.40541,1.26304 z"
       id="eye-right" />
    <path
       style="fill:#e68cf0;fill-opacity:1;stroke:#000000;stroke-width:1.5;stroke-linecap:butt;stroke-linejoin:miter;stroke-miterlimit:4;stroke-dasharray:none;stroke-opacity:1"
       d="m 44.54427,8.66101 c 0,0 2.42647,5.47481 3.46638,8.21221 1.03991,2.7374 0.92436,3.8087 0.92436,3.8087 0,0 6.81898,-3.69316 9.82014,-3.46207 3.00116,0.23109 7.27238,2.31087 7.27238,2.31087 0,0 -1.03991,-5.8213 -4.04107,-9.74001 -3.00116,-3.91871 -6.35125,-6.35125 -10.04832,-6.00477 -3.69707,0.34648 -7.39227,4.87507 -7.39227,4.87507 z"
       id="ear-right" />
    <path
       style="fill:#e68cf0;fill-opacity:1;stroke:#000000;stroke-width:1.5;stroke-linecap:butt;stroke-linejoin:miter;stroke-miterlimit:4;stroke-dasharray:none;stroke-opacity:1"
       d="m 32.30284,16.93338 c 0,0 -0.37378,3.21394 -0.1108,4.85069 0.26298,1.63675 1.10799,3.77044 1.10799,3.77044 0,0 -4.32323,0.39558 -6.20557,-0.5099 -1.88234,-0.90548 -4.54261,-2.98696 -4.54261,-2.98696 0,0 -0.8081,-4.10385 0.67108,-6.91745 1.47918,-2.8136 3.21395,-4.87249 6.03859,-4.8002 2.82464,0.0723 3.04041,6.59338 3.04041,6.59338 z"
       id="ear-left" />
    <path
       style="fill:#f9c7ff;fill-opacity:1;stroke:#000000;stroke-width:1.5;stroke-linecap:butt;stroke-linejoin:miter;stroke-miterlimit:4;stroke-dasharray:none;stroke-opacity:1"
       d="m 45.54427,0.5 c 0,0 0,5.5 0.5,8 0.5,2.5 2,4.5 2,4.5 0,0 4,-3.5 7.5,-3.5 3.5,0 7.5,2 7.5,2 0,0 0.5,-5 -2,-8.5 -2.5,-3.5 -7,-3 -7,-3 0,0 -2,-0.5 -4.5,0 -2.5,0.5 -4,0.5 -4,0.5 z"
       id="horn" />
    <path
       style="fill:none;stroke:#000000;stroke-width:1px;stroke-linecap:butt;stroke-linejoin:miter;stroke-opacity:1"
       d="m 36.5,31.5 c 0,0 3,1.5 6,1.5 3,0 6,-1.5 6,-1.5"
       id="nose" />
  </g>
  <g id="counter-text" transform="translate(50,75)" style="font-style:normal;font-weight:normal;font-size:12px;font-family:Arial;text-anchor:middle">
    <text x="0" y="0" fill="#6d28d9" style="font-weight:bold">UnicornCount™</text>
  </g>
</svg> 